<svg xmlns="http://www.w3.org/2000/svg" width="16" height="40" viewBox="0 0 16 40"><path d="M6.4578 5.11607C5.21805 4.67233 4.08867 3.98846 3.14118 3.1078C2.19369 2.22713 1.44874 1.16886 0.953521 0C3.65678 0.0651136 6.45291 2.69757 6.4578 5.11607ZM12.8126 33.0219C10.9306 32.194 8.41313 33.5382 6.56534 35.7288C8.11494 37.0171 11.2581 35.9567 12.8078 33.0219H12.8126ZM14.9831 27.6733C12.9691 27.2082 10.7986 28.9802 9.48368 31.3941C11.2728 32.3801 14.1032 30.7988 14.9782 27.6826L14.9831 27.6733ZM15.9998 22.0921C13.9321 22.0131 12.1576 24.1386 11.3852 26.7431C13.3406 27.3291 15.7505 25.292 15.995 22.0875L15.9998 22.0921ZM15.8581 16.4272C13.8148 16.7342 12.4998 19.1527 12.2749 21.827C14.3134 22.0456 16.2589 19.6132 15.8532 16.4226L15.8581 16.4272ZM14.5578 10.8693C12.6367 11.553 11.8252 14.1855 12.1478 16.8551C14.1912 16.6923 15.6137 13.9529 14.5578 10.8693ZM12.1136 5.60908C10.3489 6.64624 10.1583 9.40892 11.0186 11.9856C12.9788 11.446 13.8148 8.46943 12.1038 5.60908H12.1136ZM8.49135 0.823223C6.99063 2.18131 7.44524 4.97654 8.85797 7.37179C10.6813 6.47416 10.8573 3.36731 8.49135 0.823223ZM1.82853 6.41834C3.42702 8.1113 5.78809 8.95778 7.62611 8.04154C6.19383 5.65559 3.3097 5.06491 1.82853 6.41834ZM4.38025 9.80425C5.54368 11.7158 7.67499 12.9623 9.66455 12.4088C8.77487 9.84146 6.12539 8.76709 4.38025 9.80425ZM6.11561 13.525C6.83909 15.5808 8.6771 17.19 10.74 17.0179C10.3978 14.3576 8.04162 12.8367 6.11561 13.525ZM7.03462 17.4551C7.32303 19.5899 8.79931 21.5108 10.8573 21.7247C11.0626 19.069 9.06328 17.1388 7.03462 17.4551ZM7.13239 21.4596C6.98574 23.6083 8.04162 25.7757 10.0165 26.371C10.7644 23.7711 9.18549 21.5294 7.13239 21.4596ZM6.41869 25.4176C5.83209 27.5059 6.41869 29.8593 8.21271 30.8127C9.50812 28.3709 8.41313 25.8687 6.41869 25.4176ZM4.87886 29.2035C3.83764 31.1615 3.88164 33.6126 5.4508 34.8823C7.28881 32.701 6.77065 30.0174 4.87886 29.2035ZM1.16861 39.3147C0.933968 39.4868 0.836201 39.7426 0.953521 39.8961C1.07084 40.0495 1.37392 40.0309 1.61345 39.8542C6.91529 35.9687 10.4469 30.2949 11.4794 24.0038C12.5118 17.7127 10.9662 11.2846 7.16172 6.04627C14.5578 16.5947 12.4314 31.3429 1.17838 39.3054L1.16861 39.3147Z" fill="#fff"/></svg>