<svg xmlns="http://www.w3.org/2000/svg" width="16" height="40" viewBox="0 0 16 40"><path d="M10.446 5.11607C11.6858 4.67233 12.8151 3.98846 13.7626 3.1078C14.7101 2.22713 15.4551 1.16886 15.9503 0C13.247 0.0651136 10.4509 2.69757 10.446 5.11607ZM4.09117 33.0219C5.97318 32.194 8.49067 33.5382 10.3385 35.7288C8.78886 37.0171 5.64566 35.9567 4.09605 33.0219H4.09117ZM1.92074 27.6733C3.93474 27.2082 6.10516 28.9802 7.42013 31.3941C5.63099 32.3801 2.80064 30.7988 1.92563 27.6826L1.92074 27.6733ZM0.903966 22.0921C2.97174 22.0131 4.7462 24.1386 5.51856 26.7431C3.56322 27.3291 1.15327 25.292 0.908854 22.0875L0.903966 22.0921ZM1.04573 16.4272C3.08906 16.7342 4.40402 19.1527 4.62888 21.827C2.59044 22.0456 0.644883 19.6132 1.05062 16.4226L1.04573 16.4272ZM2.34603 10.8693C4.26715 11.553 5.07861 14.1855 4.75598 16.8551C2.71265 16.6923 1.29014 13.9529 2.34603 10.8693ZM4.7902 5.60908C6.55489 6.64624 6.74554 9.40892 5.88519 11.9856C3.92496 11.446 3.08906 8.46943 4.79998 5.60908H4.7902ZM8.41246 0.823223C9.91318 2.18131 9.45857 4.97654 8.04584 7.37179C6.22248 6.47416 6.0465 3.36731 8.41246 0.823223ZM15.0753 6.41834C13.4768 8.1113 11.1157 8.95778 9.2777 8.04154C10.71 5.65559 13.5941 5.06491 15.0753 6.41834ZM12.5236 9.80425C11.3601 11.7158 9.22882 12.9623 7.23926 12.4088C8.12894 9.84146 10.7784 8.76709 12.5236 9.80425ZM10.7882 13.525C10.0647 15.5808 8.2267 17.19 6.16382 17.0179C6.50601 14.3576 8.86219 12.8367 10.7882 13.525ZM9.86919 17.4551C9.58078 19.5899 8.1045 21.5108 6.0465 21.7247C5.84119 19.069 7.84053 17.1388 9.86919 17.4551ZM9.77142 21.4596C9.91807 23.6083 8.86219 25.7757 6.8873 26.371C6.13938 23.7711 7.71832 21.5294 9.77142 21.4596ZM10.4851 25.4176C11.0717 27.5059 10.4851 29.8593 8.6911 30.8127C7.39569 28.3709 8.49067 25.8687 10.4851 25.4176ZM12.0249 29.2035C13.0662 31.1615 13.0222 33.6126 11.453 34.8823C9.61499 32.701 10.1332 30.0174 12.0249 29.2035ZM15.7352 39.3147C15.9698 39.4868 16.0676 39.7426 15.9503 39.8961C15.833 40.0495 15.5299 40.0309 15.2904 39.8542C9.98852 35.9687 6.45689 30.2949 5.42445 24.0038C4.39201 17.7127 5.93756 11.2846 9.74209 6.04627C2.34603 16.5947 4.47246 31.3429 15.7254 39.3054L15.7352 39.3147Z" fill="#fff"/></svg>